<svg xmlns="http://www.w3.org/2000/svg" viewBox="0 0 32 32" fill="none">
  <rect width="32" height="32" rx="6" fill="#0a0a0a"/>
  <circle cx="16" cy="16" r="12" fill="none" stroke="#a855f7" stroke-width="0.5" opacity="0.3"/>
  <path d="M16 8c-1.5 0-2.8.5-3.8 1.3C11.2 10.1 10.5 11.2 10 12.5c-.3.8-.5 1.7-.5 2.5 0 1.5.5 2.8 1.3 3.8.5.6 1 1.2 1.2 2v1.7c0 .3.2.5.5.5h7c.3 0 .5-.2.5-.5v-1.7c.2-.8.7-1.4 1.2-2 .8-1 1.3-2.3 1.3-3.8 0-.8-.2-1.7-.5-2.5-.5-1.3-1.2-2.4-2.2-3.2C18.8 8.5 17.5 8 16 8z" fill="#a855f7" opacity="0.8"/>
  <path d="M16 8v14.5M13 12c0 2 1 3.5 3 4M19 12c0 2-1 3.5-3 4" stroke="#d8b4fe" stroke-width="0.7" fill="none" stroke-linecap="round"/>
</svg>
